<svg xmlns="http://www.w3.org/2000/svg" width="24" height="24" viewBox="0 0 24 24"><rect width="24" height="24" fill="#f96c21" opacity="0"/><path d="M10.555,1.3l1.584,3.193a1.957,1.957,0,0,0,1.278.953l2.871.481c1.836.308,2.268,1.651.945,2.976L15,11.152a1.981,1.981,0,0,0-.468,1.642l.639,2.785c.5,2.2-.657,3.057-2.592,1.905L9.889,15.879a1.931,1.931,0,0,0-1.782,0L5.416,17.485c-1.926,1.152-3.1.29-2.592-1.905l.639-2.785A1.981,1.981,0,0,0,3,11.152L.764,8.9C-.55,7.578-.127,6.235,1.709,5.927L4.58,5.446a1.961,1.961,0,0,0,1.269-.953L7.432,1.3C8.3-.433,9.7-.433,10.555,1.3Z" transform="translate(3 3.001)" fill="none" stroke="#111" stroke-linecap="round" stroke-linejoin="round" stroke-width="2"/></svg>