<svg xmlns="http://www.w3.org/2000/svg" width="24" height="24" viewBox="0 0 24 24"><rect width="24" height="24" fill="#f96c21" opacity="0"/><path d="M18,14.7a2.288,2.288,0,0,1-.225.981,3.713,3.713,0,0,1-.613.918,4.063,4.063,0,0,1-1.478,1.062A4.532,4.532,0,0,1,13.926,18a7.521,7.521,0,0,1-2.938-.657,15.838,15.838,0,0,1-3.1-1.782,25.9,25.9,0,0,1-2.956-2.52A25.583,25.583,0,0,1,2.416,10.1,16.039,16.039,0,0,1,.649,7.029,7.571,7.571,0,0,1,0,4.086,4.65,4.65,0,0,1,.324,2.349,4.142,4.142,0,0,1,1.361.846,2.643,2.643,0,0,1,3.236,0a1.7,1.7,0,0,1,.73.162,1.469,1.469,0,0,1,.6.5L6.661,3.609a3.079,3.079,0,0,1,.361.63,1.421,1.421,0,0,1,.126.549,1.22,1.22,0,0,1-.189.639,3.062,3.062,0,0,1-.5.639l-.685.711a.481.481,0,0,0-.144.36.816.816,0,0,0,.027.207c.027.072.054.126.072.18a7.469,7.469,0,0,0,.838,1.152c.406.468.838.945,1.307,1.422.487.477.955.918,1.433,1.323a6.918,6.918,0,0,0,1.163.828c.045.018.1.045.162.072a.623.623,0,0,0,.225.036.5.5,0,0,0,.37-.153l.685-.675a2.765,2.765,0,0,1,.649-.5,1.2,1.2,0,0,1,.64-.189,1.44,1.44,0,0,1,.55.117,3.488,3.488,0,0,1,.631.351l2.983,2.115a1.366,1.366,0,0,1,.5.576A1.844,1.844,0,0,1,18,14.7Z" transform="translate(3 3)" fill="none" stroke="#000" stroke-width="2"/></svg>