<svg xmlns="http://www.w3.org/2000/svg" width="24" height="24" viewBox="0 0 24 24"><rect width="24" height="24" fill="#f96c21" opacity="0"/><g transform="translate(-1129.975 -4525.939)"><path d="M8.025,0A5.975,5.975,0,0,0,2.041,5.957V8.826a4.728,4.728,0,0,1-.568,2.045l-1.147,1.9A1.9,1.9,0,0,0,1.4,15.677a20.956,20.956,0,0,0,13.235,0,1.985,1.985,0,0,0,1.077-2.909l-1.147-1.9a4.858,4.858,0,0,1-.559-2.045V5.957A5.988,5.988,0,0,0,8.025,0Z" transform="translate(1133.974 4528.91)" fill="none" stroke="#111" stroke-linecap="round" stroke-width="2"/><path d="M3.7,1.26a6.054,6.054,0,0,0-.96-.2A6.754,6.754,0,0,0,0,1.26a1.988,1.988,0,0,1,3.7,0Z" transform="translate(1140.149 4527.939)" fill="none" stroke="#111" stroke-linecap="round" stroke-linejoin="round" stroke-width="2"/><path d="M6,0A3.009,3.009,0,0,1,3,3,3.011,3.011,0,0,1,.88,2.12,3.011,3.011,0,0,1,0,0" transform="translate(1138.998 4544.939)" fill="none" stroke="#111" stroke-width="2"/></g></svg>